<svg width="49" height="49" viewBox="0 0 49 49" fill="none" xmlns="http://www.w3.org/2000/svg">
<path d="M14.7818 48.4057C22.7211 48.4057 29.1573 41.4538 29.1573 32.8782C29.1573 24.3025 22.7211 17.3506 14.7818 17.3506C6.84241 17.3506 0.40625 24.3025 0.40625 32.8782C0.40625 41.4538 6.84241 48.4057 14.7818 48.4057Z" fill="#04E061"/>
<path d="M39.7197 46.4462C44.5172 46.4462 48.4063 42.2454 48.4063 37.0635C48.4063 31.8815 44.5172 27.6808 39.7197 27.6808C34.9223 27.6808 31.0331 31.8815 31.0331 37.0635C31.0331 42.2454 34.9223 46.4462 39.7197 46.4462Z" fill="#FF4053"/>
<path d="M17.531 15.3265C20.4999 15.3265 22.9065 12.7269 22.9065 9.52025C22.9065 6.31358 20.4999 3.71405 17.531 3.71405C14.5623 3.71405 12.1556 6.31358 12.1556 9.52025C12.1556 12.7269 14.5623 15.3265 17.531 15.3265Z" fill="#965EEB"/>
<path d="M36.3451 25.6547C42.8 25.6547 48.0329 20.0025 48.0329 13.0303C48.0329 6.05792 42.8 0.405762 36.3451 0.405762C29.89 0.405762 24.6572 6.05792 24.6572 13.0303C24.6572 20.0025 29.89 25.6547 36.3451 25.6547Z" fill="#00AAFF"/>
</svg>
